<svg width="34" height="21" viewBox="0 0 34 21" fill="none" xmlns="http://www.w3.org/2000/svg">
<g clip-path="url(#clip0_1112_810)">
<g clip-path="url(#clip1_1112_810)">
<path d="M34 16.5001C34 19.5376 41.505 24.6001 37.9844 24.6001L5.3125 24.0666C1.79191 24.0666 -5.04688 26.3042 -5.04688 23.2667V-2.86659C-5.04688 -5.90409 1.79191 -3.40001 5.3125 -3.40001L28.4219 -2.86659C31.9425 -2.86659 37.9844 -10.4375 37.9844 -7.40001L34 16.5001Z" fill="#137A08"/>
<path fill-rule="evenodd" clip-rule="evenodd" d="M16.252 10.6602C16.2143 10.1637 16.2988 10.0392 16.9028 9.70968C16.7312 9.56268 16.524 9.52868 16.3115 9.51318C16.057 9.49518 15.8031 9.48718 15.5513 9.46468C15.4217 9.45418 15.3972 9.40618 15.4217 9.28568C15.4897 8.95568 15.6714 8.72668 16.0284 8.62218C16.3758 8.51968 16.7153 8.39268 17.068 8.27218C17.0569 8.24368 17.0425 8.21568 17.0292 8.18668C16.9896 8.11595 16.9678 8.03758 16.9654 7.95764C16.9631 7.8777 16.9804 7.79833 17.016 7.72568C17.0441 7.66868 17.0755 7.61168 17.1105 7.55918C17.3283 7.23168 17.5398 7.17118 17.91 7.33518C18.0269 7.38718 18.1406 7.44968 18.2421 7.52418C18.5364 7.73968 18.563 8.04368 18.3 8.29518C18.19 8.39768 18.0413 8.46818 17.909 8.55268C17.833 8.59968 17.7108 8.58668 17.6843 8.70268C17.6827 8.71168 17.638 8.71268 17.6136 8.71668C17.5472 8.72018 17.4744 8.70718 17.4149 8.72918C17.1307 8.82818 16.8507 8.93518 16.5708 9.04318C16.5272 9.05818 16.4895 9.08568 16.4475 9.10718L16.455 9.14018C16.7057 9.14018 16.9596 9.14368 17.2099 9.13868C17.7714 9.12518 18.334 9.10818 18.8955 9.09168C19.0783 9.08768 19.1 9.11968 19.0453 9.28418C19.0325 9.31943 19.0204 9.35494 19.0092 9.39068C18.955 9.57618 18.8211 9.65918 18.623 9.68768C18.0216 9.76868 17.4468 9.94868 16.8821 10.1597C16.7525 10.2097 16.6186 10.2772 16.6122 10.4257C16.6074 10.5712 16.7211 10.6627 16.8454 10.7267C16.9713 10.7902 17.1052 10.8362 17.2364 10.8847C17.3862 10.9377 17.4133 10.9792 17.3745 11.1212C17.2895 11.4182 17.281 11.4357 16.9421 11.4017C16.2642 11.3327 15.673 11.1012 15.2735 10.5457C15.1927 10.4327 15.1316 10.3057 15.0514 10.1692C15.019 10.2082 14.9871 10.2437 14.9552 10.2812C14.7002 10.6107 14.424 10.9227 14.0723 11.1697C13.8189 11.3492 13.5506 11.4897 13.2159 11.4827C12.8212 11.4737 12.5747 11.2847 12.4987 10.9167C12.4892 10.8712 12.4785 10.8267 12.4685 10.7837C12.0998 10.9122 11.7375 11.0397 11.3757 11.1607C11.1982 11.2182 11.0197 11.2707 10.8391 11.3162C10.7759 11.3327 10.7068 11.3267 10.6404 11.3302C10.633 11.3152 10.625 11.3002 10.6197 11.2842C10.6696 11.2512 10.7175 11.2137 10.77 11.1852C11.3066 10.8917 11.8379 10.5977 12.3744 10.3062C12.4578 10.2607 12.4961 10.1967 12.5242 10.1127C12.6071 9.88718 12.6995 9.66568 12.7915 9.44268C12.8085 9.40068 12.8398 9.36668 12.8823 9.30168C12.9854 9.51468 12.8871 9.71368 12.9381 9.91218C12.9694 9.89668 13.0002 9.88218 13.0236 9.86318C13.2207 9.71018 13.4205 9.56218 13.608 9.40068C13.8694 9.17418 13.9081 8.98468 13.7679 8.67868C13.6882 8.50968 13.599 8.34518 13.5092 8.18118C13.4918 8.14784 13.4635 8.12066 13.4284 8.10368C13.3216 8.04518 13.2892 7.96118 13.3291 7.85818C13.3753 7.74468 13.429 7.63518 13.489 7.52868C13.5352 7.44818 13.6154 7.43668 13.677 7.50418C13.8141 7.65168 13.9437 7.80668 14.0638 7.96518C14.135 8.05918 14.0957 8.13218 13.9884 8.16318C14.0425 8.36618 14.1036 8.56418 14.1467 8.76468C14.229 9.16468 14.0983 9.50818 13.8141 9.80768C13.549 10.0882 13.2563 10.3377 12.9105 10.5307C12.868 10.5537 12.834 10.6212 12.8361 10.6697C12.8371 10.7792 12.886 10.8907 13.0071 10.9112C13.1485 10.9352 13.3036 10.9472 13.439 10.9167C13.7631 10.8472 14.0224 10.6562 14.2365 10.4287C14.4505 10.1967 14.6306 9.93468 14.8245 9.68668C14.8825 9.61168 14.8846 9.53718 14.8559 9.44818C14.6769 8.92718 14.5053 8.40168 14.3284 7.88118C14.2428 7.62968 14.331 7.29468 14.534 7.14868C14.5685 7.20268 14.602 7.25268 14.6312 7.30718C14.9956 8.01068 15.2134 8.75368 15.3213 9.52868C15.3595 9.81668 15.4174 10.1037 15.6358 10.3322C15.7994 10.5047 16.0124 10.6022 16.252 10.6602ZM17.9196 8.05568C17.9207 8.04368 17.9207 8.03068 17.9207 8.01968C17.7666 7.95468 17.6444 7.82318 17.4266 7.82318C17.4425 7.94068 17.4564 8.04318 17.4702 8.16518L17.9196 8.05568ZM22.5303 17.2792C22.2498 17.2792 22.0012 17.2752 21.751 17.2817C21.2378 17.2922 20.7267 17.3152 20.2109 17.3187C17.322 17.3392 14.4304 17.3572 11.5398 17.3672C11.0112 17.3682 10.48 17.3342 9.9652 17.1962C9.72349 17.1312 9.49717 17.0327 9.31814 16.8562C9.27564 16.8142 9.23952 16.7612 9.17896 16.6872H9.41005C12.5869 16.7062 15.7638 16.7307 18.9396 16.7442C20.0775 16.7507 21.2134 16.7377 22.3513 16.7307C22.397 16.7307 22.4783 16.7167 22.4804 16.7022C22.4889 16.6477 22.491 16.5722 22.4565 16.5382C22.2998 16.3747 22.3885 16.2412 22.5107 16.1042C22.5601 16.0492 22.6121 16.0407 22.6669 16.1012C22.8167 16.2707 22.8613 16.3587 22.7274 16.5202C22.6897 16.5662 22.6924 16.6422 22.6722 16.7167C22.7311 16.7212 22.7662 16.7277 22.7991 16.7267C23.341 16.7177 23.8781 16.7067 24.4189 16.6962C24.5209 16.6962 24.6245 16.7027 24.7265 16.7142C24.9709 16.7407 25.1005 16.8527 25.1536 17.0817C25.1993 17.2732 25.1993 17.4667 25.1207 17.6522C25.0155 17.9032 24.7727 17.9542 24.5565 17.7757C24.519 17.7494 24.4741 17.7339 24.4274 17.7312C24.2893 17.7272 24.1506 17.7312 24.0125 17.7322C23.91 17.7337 23.808 17.7187 23.7331 17.8277C23.6842 17.8982 23.595 17.8687 23.5179 17.8227C23.4624 17.7876 23.3989 17.7654 23.3325 17.7577C23.2215 17.7487 23.1089 17.7627 22.9984 17.7557C22.8682 17.7497 22.763 17.7702 22.7046 17.8977C22.6716 17.9662 22.6121 17.9637 22.5532 17.9112C22.3933 17.7757 22.38 17.6657 22.4868 17.4862C22.5181 17.4327 22.5139 17.3622 22.5303 17.2792ZM24.429 17.5542L24.4614 17.2317C24.4349 17.2292 24.4131 17.2212 24.3929 17.2212C23.8723 17.2337 23.3522 17.2442 22.8305 17.2587C22.7088 17.2622 22.6626 17.3417 22.7226 17.4452C22.7752 17.5332 22.8379 17.6052 22.9745 17.5822C23.0961 17.5637 23.2231 17.5782 23.3463 17.5672C23.4033 17.5609 23.4566 17.5378 23.4988 17.5012C23.5827 17.4262 23.6619 17.4282 23.748 17.4887C23.783 17.5152 23.8197 17.5497 23.8558 17.5512C24.0455 17.5592 24.2372 17.5542 24.429 17.5542Z" fill="white"/>
<path fill-rule="evenodd" clip-rule="evenodd" d="M10.1681 8.78969C10.0247 8.82969 9.88179 8.86969 9.73888 8.91419C9.59172 8.95719 9.45466 8.92469 9.32663 8.86269C9.28519 8.84519 9.23897 8.80019 9.23313 8.76469C9.18425 8.42769 9.16407 8.09519 9.42491 7.80919C9.6066 7.60769 9.78935 7.57319 9.996 7.75169C10.1543 7.88569 10.2839 8.04869 10.438 8.21119C10.4869 8.18469 10.5639 8.15119 10.6314 8.10569C10.6464 8.09294 10.6585 8.07747 10.667 8.0602C10.6755 8.04292 10.6802 8.02421 10.6808 8.00519C10.6425 7.58019 10.5995 7.15219 10.5559 6.72619C10.5071 6.24669 10.4561 5.76819 10.4051 5.28769C10.4022 5.25467 10.3958 5.222 10.3859 5.19019C10.3195 4.99869 10.4348 4.75169 10.6393 4.67419C10.6648 4.66369 10.7328 4.69219 10.7472 4.71869C10.7961 4.81319 10.8295 4.91369 10.8678 5.01219C10.9384 5.19269 11.0086 5.37519 11.0776 5.55569C11.0976 5.60197 11.1097 5.65089 11.1138 5.70069C11.1286 5.87419 11.0558 5.92869 10.8795 5.88369C10.9262 6.53769 10.9762 7.19019 11.0277 7.86769C11.1074 7.80669 11.1632 7.75469 11.2264 7.71369C11.2683 7.68669 11.3199 7.67419 11.3672 7.65469C11.3879 7.70369 11.4203 7.74919 11.4251 7.79769C11.4378 7.88219 11.4144 7.97219 11.4415 8.04869C11.4713 8.12869 11.5249 8.23419 11.5956 8.25969C11.6647 8.28419 11.8044 8.24619 11.8511 8.18969C11.9664 8.05619 12.0488 7.89719 12.1396 7.74519C12.1624 7.70669 12.1768 7.66469 12.1948 7.62469H12.2363C12.2538 7.70819 12.265 7.79669 12.2926 7.87769C12.3255 7.97169 12.3579 8.07419 12.4185 8.14869C12.5226 8.27619 12.6677 8.24569 12.7038 8.09419C12.7256 7.99919 12.716 7.89419 12.7001 7.79919C12.6793 7.69219 12.7245 7.58869 12.8355 7.56919C12.8663 7.56469 12.9285 7.60019 12.9375 7.62819C13.0124 7.89119 13.0066 8.15569 12.8903 8.40519C12.7968 8.60119 12.4265 8.61369 12.2368 8.43919C12.2023 8.40769 12.1709 8.36869 12.1263 8.32319C11.9818 8.46319 11.8325 8.58969 11.6137 8.60869C11.3958 8.62719 11.2195 8.57319 11.0994 8.36819C11.0845 8.41119 11.0697 8.43269 11.0697 8.45469C11.0787 8.67369 11.0909 8.89169 11.0994 9.10969C11.1159 9.50169 11.0925 9.88869 10.9236 10.2572C10.7866 10.5576 10.5404 10.8022 10.2292 10.9472C9.71975 11.1912 9.18213 11.3497 8.60413 11.3522C8.50319 11.3522 8.39853 11.3357 8.30025 11.3167C7.91563 11.2417 7.72278 10.9937 7.62769 10.6567C7.47841 10.1302 7.51347 9.61219 7.701 9.09869C7.71694 9.05519 7.74722 9.01469 7.77007 8.97369C7.78308 8.97807 7.79666 8.98076 7.81044 8.98169C7.81044 9.12019 7.82691 9.26069 7.80885 9.39469C7.76157 9.72269 7.77591 10.0397 7.89863 10.3492C8.01072 10.6362 8.23916 10.7972 8.56375 10.8152C9.19541 10.8492 9.73516 10.6227 10.2372 10.2842C10.5846 10.0497 10.7228 9.72769 10.7228 9.34019C10.7212 9.08819 10.7228 8.83519 10.7228 8.56619C10.6223 8.60669 10.506 8.60969 10.5225 8.74419C10.6075 9.48319 10.1633 9.91019 9.53382 10.2222C9.36382 10.3077 9.17628 10.3792 8.98716 10.4147C8.50319 10.5062 8.06863 10.1982 7.99425 9.73769C7.94166 9.40819 8.0001 9.08719 8.08616 8.76869C8.10103 8.71769 8.143 8.67369 8.17169 8.62469C8.18279 8.62984 8.19459 8.63354 8.20675 8.63569C8.20675 8.69969 8.21313 8.76319 8.20675 8.82569C8.18125 9.07919 8.17966 9.33069 8.29282 9.56819C8.44316 9.88869 8.687 9.99069 9.03975 9.88119C9.47804 9.74519 9.81591 9.47469 10.1001 9.14469C10.1734 9.05819 10.1788 8.92519 10.2154 8.81269C10.2021 8.80419 10.1841 8.79669 10.1681 8.78969ZM10.0088 8.37669C9.945 8.30369 9.90941 8.23919 9.85469 8.20469C9.7936 8.16569 9.71232 8.15269 9.64219 8.12869C9.62466 8.19769 9.58694 8.26969 9.59863 8.33519C9.60341 8.37569 9.68097 8.43219 9.72825 8.43569C9.81272 8.43819 9.89719 8.40269 10.0088 8.37669ZM25.2455 7.30019C25.2599 7.58469 25.2774 7.86769 25.2912 8.15269C25.3157 8.62719 25.3534 9.10019 25.3518 9.57369C25.3485 9.76621 25.2981 9.95542 25.2046 10.1267C24.9757 10.5452 24.573 10.5997 24.1421 10.3477C24.0093 10.2712 23.9078 10.1442 23.8058 10.0277C23.7469 9.96369 23.7033 9.94669 23.6507 10.0142C23.5734 10.1108 23.5024 10.2119 23.4382 10.3167C23.2735 10.5957 23.1173 10.8792 22.9543 11.1587C22.9215 11.2182 22.8759 11.2707 22.8204 11.3127C22.7715 11.3467 22.6961 11.3752 22.6398 11.3682C22.3566 11.3252 21.9502 10.8922 21.9544 10.6197C21.956 10.3872 21.9879 10.1527 22.0251 9.92119C22.0479 9.77069 22.0995 9.62569 22.1388 9.47769C22.1584 9.47969 22.1776 9.47969 22.1956 9.48119C22.2063 9.55419 22.2275 9.62719 22.2275 9.70069C22.2238 10.0197 22.2493 10.3282 22.3874 10.6242C22.4049 10.6582 22.4203 10.6942 22.4421 10.7257C22.5457 10.8797 22.6785 10.8852 22.7885 10.7337C22.8469 10.6507 22.8905 10.5582 22.9436 10.4702C23.1386 10.1457 23.3267 9.81519 23.5317 9.49769C23.6635 9.29119 23.7926 9.29119 23.9658 9.47469C24.0784 9.59669 24.1783 9.73519 24.3031 9.84469C24.4912 10.0087 24.7563 9.94819 24.8444 9.72169C24.8928 9.58919 24.9278 9.44269 24.922 9.30369C24.897 8.63069 24.8593 7.95419 24.8227 7.28119C24.8131 7.13419 24.7897 6.98619 24.7913 6.84019C24.7955 6.71028 24.7471 6.58373 24.6558 6.48619C24.3923 6.17969 24.1389 5.86469 23.8754 5.55819C23.741 5.40419 23.6576 5.24769 23.6884 5.04269C23.7049 4.94769 23.6858 4.84769 23.6938 4.75219C23.698 4.71069 23.7166 4.64969 23.7479 4.63519C23.7798 4.62169 23.8473 4.64319 23.8765 4.67019C24.0821 4.85119 24.2829 5.03519 24.48 5.22319C24.565 5.30319 24.5491 5.35219 24.4237 5.42819C24.5013 5.53669 24.5804 5.64369 24.6564 5.74969C24.6699 5.74679 24.6835 5.74445 24.6973 5.74269C24.6728 5.56819 24.6782 5.38369 24.6176 5.22469C24.5225 4.98019 24.6213 4.79919 24.7637 4.62119C24.8381 4.52769 24.897 4.58919 24.9284 4.66419C25.0081 4.85569 25.083 5.04619 25.1558 5.24119C25.2009 5.35969 25.237 5.48269 25.2833 5.62419C25.2083 5.61969 25.169 5.61519 25.1329 5.61219C25.1318 5.62119 25.126 5.62719 25.126 5.63519C25.1425 5.88669 25.1573 6.14019 25.1765 6.39019C25.1791 6.41869 25.1818 6.45019 25.1993 6.47319C25.3821 6.71769 25.5712 6.96219 25.7794 7.19719C25.7502 7.01519 25.7141 6.83069 25.6944 6.64719C25.6381 6.15069 25.6041 5.65169 25.5303 5.15819C25.4995 4.94719 25.5468 4.78019 25.6764 4.62119C25.7778 4.49769 25.8623 4.50019 25.9117 4.64719C26.0132 4.94969 26.1019 5.25819 26.1853 5.56769C26.2161 5.67969 26.1635 5.72269 26.0281 5.72769C26.0578 6.12619 26.0886 6.52369 26.1216 6.91919C26.1433 7.17219 26.1635 7.42419 26.1943 7.67319C26.2044 7.74319 26.2289 7.82019 26.2708 7.88069C26.5227 8.24169 26.7851 8.59819 27.0348 8.95919C27.1989 9.19719 27.2855 9.45869 27.2638 9.74569C27.2611 9.78519 27.2526 9.82319 27.2446 9.90119C26.9147 9.44569 26.6087 9.02519 26.3038 8.60269C26.2677 9.05419 26.3856 9.50569 26.1534 9.92169C26.1391 9.92169 26.1221 9.92169 26.1078 9.92269C26.0993 9.86069 26.0801 9.79969 26.0833 9.73569C26.1046 9.24069 26.0642 8.74669 25.9686 8.26019C25.9611 8.22719 25.9563 8.19019 25.9351 8.16519C25.7189 7.87319 25.4984 7.58469 25.279 7.29419C25.2678 7.29569 25.2562 7.29819 25.2455 7.30019Z" fill="white"/>
<path fill-rule="evenodd" clip-rule="evenodd" d="M8.88034 4.99857C9.11622 5.16807 9.22406 5.36857 9.1975 5.61357C9.16244 5.91907 9.23841 6.20557 9.32288 6.49257C9.38503 6.69957 9.51784 6.78507 9.73194 6.79107C9.90778 6.79358 9.97791 6.72757 9.94072 6.56757C9.87538 6.29907 9.79569 6.03307 9.72184 5.76707C9.70766 5.71348 9.68605 5.66186 9.65756 5.61357C9.54016 5.41207 9.60125 5.24957 9.76753 5.10107C9.83819 5.03707 9.89981 5.02907 9.95878 5.09657C10.0496 5.20007 10.1453 5.30257 10.2148 5.41907C10.3025 5.55907 10.2754 5.62007 10.1198 5.70307C10.1702 5.90857 10.2403 6.11407 10.2642 6.32407C10.2887 6.51507 10.2929 6.71907 10.2526 6.90707C10.192 7.18207 9.78772 7.38757 9.50456 7.32357C9.33828 7.28407 9.23841 7.17957 9.17466 7.03707C9.14756 6.97657 9.12578 6.91257 9.09338 6.82957C9.05566 6.87807 9.02591 6.90707 9.00253 6.94057C8.95525 7.00557 8.9255 7.08957 8.86334 7.13757C8.70344 7.25907 8.72787 7.41108 8.74169 7.57058C8.77516 8.00658 8.80916 8.44157 8.82828 8.87757C8.83625 9.05407 8.78897 9.22357 8.62534 9.35807C8.59453 9.04807 8.56478 8.74008 8.53025 8.43057C8.49572 8.11807 8.45641 7.80508 8.41709 7.48558C8.39744 7.48158 8.37938 7.47357 8.35759 7.47207C8.00325 7.43857 7.79234 7.26757 7.69831 6.94157C7.62288 6.68107 7.63403 6.41758 7.66219 6.15558C7.67334 6.04558 7.67759 5.93657 7.68663 5.82557C7.66484 5.82257 7.64678 5.81757 7.62606 5.81507C7.574 5.99207 7.51928 6.16907 7.47359 6.34807C7.40559 6.60057 7.35194 6.85407 7.28394 7.10507C7.26278 7.16434 7.22877 7.21883 7.18406 7.26507C7.04859 7.42958 6.88125 7.42657 6.78084 7.24307C6.69164 7.07926 6.62181 6.90673 6.57259 6.72857C6.45519 6.34781 6.44768 5.94448 6.55081 5.56007C6.5625 5.51207 6.59172 5.46607 6.61138 5.41907C6.62359 5.42007 6.63741 5.42307 6.65175 5.42307C6.65706 5.47707 6.66397 5.53407 6.66981 5.58857C6.70434 5.89507 6.73038 6.20457 6.78138 6.51157C6.79784 6.61858 6.86 6.72458 6.92428 6.81708C6.99069 6.91658 7.08419 6.90907 7.12191 6.80057C7.17822 6.62857 7.22284 6.45208 7.24622 6.27557C7.28447 5.94857 7.37691 5.64207 7.56763 5.36557C7.62181 5.29057 7.68822 5.21657 7.76631 5.16757C7.90072 5.08457 8.04097 5.15207 8.03566 5.30107C8.02905 5.45531 8.00537 5.60847 7.965 5.75807C7.87628 6.07057 7.88478 6.37257 8.04097 6.66357C8.11959 6.80107 8.20088 6.85007 8.36875 6.86257C8.35866 6.72807 8.35653 6.59507 8.33847 6.46357C8.29119 6.07857 8.23913 5.69157 8.18441 5.30657C8.16721 5.19678 8.14218 5.0882 8.1095 4.98157C8.084 4.87907 8.16634 4.65857 8.26569 4.61507C8.29491 4.60157 8.36928 4.62207 8.38416 4.64757C8.48563 4.83207 8.58656 5.01907 8.66837 5.21257C8.68719 5.25598 8.69014 5.30405 8.67678 5.34921C8.66341 5.39437 8.63448 5.43407 8.59453 5.46207C8.57116 5.47807 8.55734 5.51757 8.55894 5.54757C8.59825 5.95607 8.64181 6.36607 8.68325 6.77307C8.68431 6.78107 8.69281 6.78607 8.69919 6.79207C8.87663 6.68507 8.97916 6.46307 8.94197 6.27857C8.88831 6.02757 8.832 5.77857 8.78578 5.52557C8.75231 5.35157 8.80066 5.18757 8.88034 4.99857ZM13.5739 5.09507C13.5697 5.13607 13.5676 5.17507 13.5596 5.21307C13.5006 5.51307 13.4884 5.81557 13.5559 6.11507C13.5846 6.24057 13.652 6.36557 13.7238 6.47807C13.7567 6.52907 13.8428 6.58107 13.9017 6.57807C13.9495 6.57557 14.0133 6.50057 14.0377 6.44457C14.1743 6.15957 14.2927 5.86507 14.4378 5.58107C14.5275 5.40407 14.6412 5.23507 14.7607 5.07507C14.8043 5.01857 14.9153 4.94407 14.9642 4.96207C15.071 4.99757 15.1178 5.10457 15.1023 5.22257C15.0837 5.35507 15.0503 5.48757 15.0444 5.62007C15.0333 5.89257 15.0184 6.16607 15.0333 6.43807C15.0476 6.73057 15.2824 6.85407 15.573 6.73657C16.0134 6.55957 16.125 6.30057 16.0953 5.88357C16.0735 5.56557 15.9895 5.24757 15.9274 4.93157C15.8902 4.72557 16.0299 4.59157 16.1277 4.41357C16.2876 4.58907 16.3322 4.77807 16.3593 4.96557C16.4071 5.27657 16.4257 5.59107 16.4762 5.90307C16.5123 6.13207 16.5952 6.35057 16.7588 6.53307C16.8305 6.61357 16.9139 6.67858 17.035 6.64158C17.1599 6.60608 17.1987 6.50657 17.2093 6.39607C17.2364 6.11207 17.1732 5.83707 17.0839 5.56857C17.028 5.40078 16.9674 5.23439 16.9022 5.06957C16.8661 4.98007 16.8751 4.91057 16.9442 4.84057C16.9957 4.78857 17.0265 4.72057 17.0658 4.66007C17.1349 4.54607 17.1785 4.53607 17.2852 4.61357C17.494 4.76807 17.6189 4.97407 17.6869 5.20957C17.698 5.24857 17.6709 5.30107 17.6608 5.34507C17.6152 5.33657 17.5679 5.33307 17.527 5.31607C17.4866 5.30057 17.4526 5.27157 17.392 5.23307C17.443 5.41907 17.4893 5.57607 17.527 5.73807C17.5843 5.99657 17.6247 6.25907 17.5434 6.52107C17.5312 6.56557 17.5206 6.61057 17.5041 6.65507C17.323 7.11207 16.9314 7.20507 16.541 6.88407C16.4576 6.81507 16.3715 6.75007 16.2998 6.69407C16.1627 6.81507 16.0055 6.96057 15.8392 7.09407C15.7786 7.14557 15.6952 7.17557 15.6161 7.20507C15.2591 7.33907 14.9435 7.20807 14.8059 6.87207C14.6922 6.60157 14.7124 6.31907 14.7315 6.03758C14.7353 5.97357 14.7315 5.90757 14.7315 5.84257C14.7168 5.83866 14.7019 5.83516 14.6869 5.83207C14.6556 5.89107 14.6189 5.94907 14.595 6.01257C14.4946 6.26357 14.4053 6.51857 14.3023 6.76907C14.1551 7.13007 13.9304 7.15607 13.6717 6.85607C13.2212 6.32707 13.2414 5.75357 13.4873 5.15957C13.4985 5.13457 13.5203 5.11107 13.5362 5.08807C13.548 5.09357 13.5608 5.09664 13.5739 5.09707M19.0586 6.01507C19.0336 5.77807 19.049 5.52607 18.9683 5.30907C18.9358 5.22768 18.9214 5.14093 18.9258 5.0541C18.9302 4.96728 18.9533 4.88221 18.9937 4.80407C19.0203 4.75457 19.0793 4.68957 19.1266 4.68657C19.1738 4.68357 19.2482 4.74057 19.27 4.78807C19.4044 5.09007 19.534 5.39157 19.6483 5.70107C19.7051 5.85757 19.652 5.91207 19.4836 5.89907C19.4968 6.18057 19.508 6.46057 19.5287 6.73957C19.5298 6.77757 19.5659 6.81457 19.5877 6.85207C19.9723 7.46557 20.367 8.07458 20.7378 8.69558C20.9222 9.00108 21.0651 9.33008 21.1182 9.68508C21.1294 9.75608 21.1272 9.83108 21.1299 9.90457C21.1159 9.91201 21.1015 9.91885 21.0869 9.92508C21.0539 9.88408 21.0136 9.84657 20.9918 9.80057C20.6385 9.01358 20.1535 8.29557 19.6706 7.57357C19.6461 7.53957 19.6212 7.50757 19.5739 7.44507C19.5983 7.72407 19.6212 7.96957 19.6419 8.21257C19.6892 8.75107 19.8013 9.28708 19.7327 9.82908C19.6987 10.0856 19.6148 10.3351 19.5441 10.5846C19.5298 10.6446 19.4798 10.6966 19.4443 10.7506C19.4251 10.7461 19.4039 10.7436 19.3863 10.7396C19.3863 10.6751 19.3731 10.6076 19.389 10.5451C19.5213 10.0616 19.474 9.57107 19.4145 9.08357C19.3375 8.43757 19.2429 7.79408 19.1664 7.14858C19.1361 6.89858 19.0766 6.67107 18.9018 6.46857C18.6453 6.16557 18.4205 5.84358 18.173 5.53407C18.0997 5.44357 17.9961 5.37457 17.9169 5.28807C17.8712 5.24107 17.825 5.17857 17.817 5.12057C17.8009 4.9659 17.7954 4.81041 17.8006 4.65507C17.8006 4.61157 17.8271 4.54857 17.8606 4.53057C17.8957 4.51557 17.9684 4.53157 18.0024 4.56007C18.2638 4.78257 18.522 5.00807 18.7733 5.24007C18.8168 5.27907 18.8227 5.35557 18.8461 5.41707C18.7765 5.43057 18.709 5.44657 18.6293 5.46357C18.7589 5.64207 18.8944 5.83357 19.0341 6.02457C19.0421 6.02057 19.049 6.01657 19.0586 6.01357M27.5639 5.56507C27.591 5.87957 27.6186 6.20507 27.6478 6.52857C27.7057 7.16957 27.7673 7.80757 27.8263 8.44758C27.8741 8.89469 27.8551 9.3459 27.77 9.78807C27.6467 10.3996 27.3668 10.9126 26.7149 11.1611C26.5242 11.2341 26.316 11.2721 26.113 11.3211C26.0572 11.3326 25.9951 11.3221 25.9356 11.3221C25.9303 11.3071 25.9223 11.2946 25.9175 11.2801C25.9765 11.2281 26.0302 11.1716 26.0928 11.1261C26.3059 10.9721 26.5269 10.8321 26.7351 10.6741C27.234 10.2911 27.4698 9.78908 27.4358 9.19208C27.4 8.57626 27.3495 7.96127 27.2844 7.34757C27.2207 6.72257 27.1399 6.09857 27.0624 5.47457C27.0422 5.31207 27.0135 5.15107 26.988 4.98957C26.9673 4.87257 27.1235 4.57557 27.2372 4.54207C27.2642 4.53507 27.3307 4.56757 27.345 4.59807C27.4831 4.87057 27.6138 5.14457 27.7429 5.42107C27.7588 5.46357 27.7482 5.51507 27.7509 5.56507H27.5639Z" fill="white"/>
<path fill-rule="evenodd" clip-rule="evenodd" d="M19.6031 11.4241C19.6748 11.3906 19.7433 11.3446 19.8172 11.3256C20.3118 11.1986 20.6592 10.8856 20.9944 10.5476C21.3004 10.2396 21.3854 9.87509 21.3514 9.46659C21.3116 8.96159 21.2951 8.45309 21.2505 7.94809C21.1952 7.32009 21.1209 6.69659 21.0502 6.07109C21.0254 5.85053 20.9944 5.63062 20.9572 5.41159C20.9476 5.34527 20.9313 5.27997 20.9084 5.21659C20.8691 5.09359 20.8866 4.98759 20.9859 4.89359C21.0805 4.81109 21.1676 4.72309 21.2728 4.62109C21.3089 4.67659 21.3509 4.71759 21.3668 4.76359C21.4502 5.02709 21.5331 5.29359 21.608 5.56059C21.6479 5.69909 21.6117 5.72659 21.4375 5.69509C21.4375 5.83059 21.4274 5.96359 21.4386 6.09459C21.5182 7.16859 21.693 8.23709 21.6792 9.31809C21.6734 9.72209 21.6681 10.1271 21.4704 10.4986C21.2919 10.8331 21.0231 11.1031 20.7049 11.3271C20.6192 11.3862 20.5201 11.4259 20.4154 11.4431C20.1997 11.4746 19.9819 11.4866 19.7646 11.5011C19.7146 11.5036 19.6631 11.4821 19.6126 11.4731C19.6103 11.4566 19.6071 11.4403 19.6031 11.4241ZM22.4346 5.80059C22.4596 6.05209 22.4782 6.28109 22.5069 6.51159C22.5813 7.13559 22.6583 7.76059 22.7396 8.38359C22.7784 8.68609 22.8363 8.98809 22.8809 9.29059C22.9361 9.67459 22.8533 10.0341 22.6641 10.3716C22.6307 10.4316 22.568 10.4751 22.5186 10.5256C22.5032 10.5231 22.4883 10.5181 22.474 10.5161C22.4607 10.4621 22.4304 10.4046 22.4426 10.3591C22.5574 9.91459 22.4809 9.47509 22.4182 9.03409C22.3284 8.42909 22.2546 7.82059 22.1637 7.21609C22.0681 6.58959 21.9714 5.96309 21.8604 5.33909C21.8131 5.06709 21.8636 4.83409 22.0442 4.62059C22.1446 4.50209 22.2306 4.50859 22.2923 4.64509C22.3518 4.77759 22.3895 4.91309 22.4479 5.04559C22.5292 5.23209 22.6254 5.41109 22.7061 5.59759C22.7364 5.66659 22.7391 5.74559 22.7534 5.81759C22.678 5.82109 22.6009 5.82559 22.5244 5.82559C22.5032 5.82509 22.4835 5.81509 22.4346 5.80059ZM11.4659 6.41859C11.5222 6.37409 11.5807 6.32509 11.6386 6.28109C11.8861 6.09009 12.1374 5.90309 12.3813 5.70609C12.4758 5.62809 12.5486 5.52509 12.632 5.43759C12.4328 5.15809 12.453 4.85909 12.6766 4.67959C12.7728 4.60259 12.8791 4.55909 13.0076 4.61409C13.1303 4.67059 13.1659 4.77309 13.1521 4.88859C13.1404 4.99559 13.1048 5.10159 13.0846 5.20509C13.0703 5.28009 13.0746 5.35859 13.0533 5.43059C13.0333 5.48017 13.0013 5.52468 12.9598 5.56059C12.912 5.60509 12.8392 5.63109 12.7988 5.67909C12.4886 6.04959 12.0779 6.28259 11.6163 6.44659C11.5786 6.45959 11.5339 6.45809 11.4914 6.46309C11.4835 6.44909 11.4755 6.43359 11.4659 6.41859ZM12.8764 4.92359C12.8536 4.92009 12.8307 4.91309 12.8089 4.91009C12.7946 4.98009 12.7776 5.05109 12.7643 5.12059L12.8196 5.13009C12.8403 5.06009 12.8562 4.99259 12.8764 4.92359ZM7.0013 9.48709C7.04752 9.66409 7.04646 9.81259 7.00715 9.97209C6.95987 10.1671 6.93809 10.3671 6.9094 10.5646C6.90515 10.5956 6.9094 10.6346 6.92693 10.6611C6.96199 10.7146 6.99759 10.7846 7.05018 10.8061C7.08152 10.8181 7.15165 10.7481 7.19734 10.7111C7.22443 10.6886 7.23771 10.6476 7.26799 10.6356C7.2919 10.6271 7.34874 10.6376 7.35618 10.6561C7.4279 10.8041 7.29509 11.1226 7.13624 11.1936C6.96677 11.2696 6.78509 11.2041 6.74418 11.0146C6.70062 10.8246 6.66874 10.6171 6.70062 10.4286C6.75162 10.1341 6.8568 9.84809 6.9418 9.55809C6.94871 9.53659 6.97315 9.52109 7.0013 9.48709ZM23.7665 7.40809L23.4244 6.84209C23.2331 6.93109 23.1885 6.90609 23.1981 6.72409C23.2012 6.67809 23.1848 6.62859 23.1965 6.58709C23.2113 6.54059 23.24 6.47709 23.2799 6.46209C23.3181 6.45059 23.3983 6.48109 23.4228 6.51509C23.4993 6.62709 23.5582 6.74909 23.6241 6.86809C23.6517 6.91759 23.6772 6.97209 23.7314 7.01959C23.7314 6.92759 23.7298 6.83909 23.7314 6.74659C23.7351 6.63209 23.7229 6.51109 23.7553 6.40259C23.7771 6.33159 23.8595 6.27159 23.9243 6.22109C23.9455 6.20309 24.0241 6.21209 24.0374 6.23159C24.0868 6.30109 24.132 6.37709 24.1516 6.45609C24.1692 6.52109 24.1331 6.57959 24.0459 6.53659C23.9195 6.47659 23.8786 6.53909 23.8749 6.63809C23.8669 6.82409 23.8706 7.00709 23.8626 7.19209C23.8616 7.25959 23.8371 7.32759 23.8223 7.39809C23.8037 7.40309 23.784 7.40509 23.7665 7.40809ZM6.65918 8.78659C6.84724 8.50409 7.09746 8.28659 7.39815 8.12359C7.58887 8.02009 7.79605 7.94259 8.00165 7.86009C8.06221 7.83459 8.14509 7.77859 8.18599 7.89159C8.22796 8.00459 8.19237 8.08909 8.08665 8.12909C7.95437 8.17759 7.81305 8.20909 7.68768 8.27009C7.36787 8.42359 7.05496 8.58859 6.73834 8.75009C6.7123 8.76359 6.68627 8.77509 6.65918 8.78659ZM19.0251 10.8936C18.8062 11.0706 18.6043 11.2746 18.292 11.3126C18.088 11.3386 17.9806 11.2186 18.0269 11.0291C18.0433 10.9626 18.0571 10.8951 18.0768 10.8136C17.9737 10.8286 17.8941 10.8421 17.8053 10.8571C17.85 10.7531 18.1597 10.5516 18.2548 10.5651C18.2861 10.5691 18.3276 10.6316 18.326 10.6631C18.3233 10.7381 18.2888 10.8111 18.2803 10.8851C18.2734 10.9396 18.2872 10.9956 18.2898 11.0511C18.3493 11.0466 18.4157 11.0511 18.4689 11.0341C18.5889 10.9921 18.7037 10.9341 18.8232 10.8886C18.8795 10.8666 18.9433 10.8571 19.0028 10.8416C19.0086 10.8591 19.0187 10.8776 19.0251 10.8936ZM24.974 10.6051C25.0197 10.6101 25.0659 10.6061 25.1068 10.6196C25.1865 10.6401 25.2253 10.6916 25.1902 10.7716C25.1754 10.8066 25.1552 10.8396 25.1355 10.8716C25.0909 10.9546 25.0723 11.0171 25.2131 11.0136C25.245 11.0136 25.3013 11.0376 25.305 11.0606C25.3135 11.0946 25.3029 11.1511 25.2736 11.1726C25.1329 11.2786 24.9756 11.3576 24.7897 11.3521C24.752 11.3511 24.6925 11.3226 24.6871 11.2951C24.676 11.2591 24.6941 11.2041 24.7201 11.1726C24.7647 11.1216 24.8295 11.0836 24.8768 11.0356C24.9294 10.9826 24.9363 10.9211 24.8656 10.8751C24.795 10.8291 24.693 10.7886 24.7546 10.6956C24.7923 10.6401 24.8874 10.6171 24.9581 10.5786C24.9623 10.5871 24.9698 10.5956 24.974 10.6051ZM16.1935 7.94809C16.2084 7.93259 16.202 7.93759 16.1962 7.94409C16.1547 8.01659 16.1112 8.12209 16.0108 8.08759C15.9684 8.06887 15.9304 8.04237 15.899 8.00967C15.8676 7.97696 15.8435 7.93869 15.828 7.89709C15.7946 7.78209 15.8078 7.65359 15.802 7.53159C15.8174 7.53009 15.8323 7.52709 15.8482 7.52459C15.9013 7.63909 15.9555 7.75559 16.0065 7.87059C16.0256 7.86959 16.0458 7.86709 16.0634 7.86609C16.0947 7.74409 16.1239 7.62009 16.1553 7.49809L16.1914 7.49459C16.2567 7.59959 16.3216 7.70659 16.3864 7.81509C16.4055 7.81409 16.4209 7.81009 16.4379 7.80909L16.5001 7.35959C16.61 7.49059 16.6281 7.61009 16.6297 7.73659C16.6297 7.83959 16.6026 7.94509 16.4926 7.97459C16.4145 7.99609 16.3168 7.96059 16.1935 7.94809ZM23.324 8.45809C23.3569 8.40709 23.3787 8.34359 23.4254 8.30359C23.5662 8.18859 23.7171 8.08359 23.8611 7.97309C24.0194 7.84909 24.1718 7.72209 24.3328 7.59959C24.3631 7.57659 24.4183 7.54859 24.4444 7.55959C24.4757 7.57309 24.4916 7.62709 24.4996 7.66359C24.5209 7.76909 24.4885 7.84909 24.3859 7.90809C24.0836 8.08509 23.7861 8.26959 23.4844 8.44759C23.4483 8.46809 23.4079 8.47959 23.3659 8.49609C23.3527 8.48269 23.3387 8.47 23.324 8.45809ZM26.6475 6.22509C26.6342 6.13609 26.6326 6.04559 26.6071 5.95859C26.5502 5.75509 26.4971 5.54659 26.41 5.35409C26.3579 5.23309 26.3553 5.14009 26.4328 5.04059C26.5067 4.94659 26.5609 4.94309 26.6039 5.04759C26.674 5.21959 26.7452 5.39359 26.7691 5.57209C26.7951 5.74809 26.7638 5.92859 26.7516 6.10659C26.7489 6.14859 26.7155 6.18759 26.6974 6.22759C26.6808 6.22604 26.6641 6.22521 26.6475 6.22509ZM20.2406 5.73109C20.2406 5.64809 20.2289 5.58609 20.2438 5.53009C20.3001 5.31359 20.222 5.14459 20.0626 4.99659C19.9404 4.88109 19.9367 4.75409 20.0647 4.64959C20.0961 4.62509 20.1811 4.61759 20.2103 4.64009C20.4733 4.83609 20.5285 5.45809 20.3123 5.69909C20.3043 5.70809 20.2905 5.70909 20.2406 5.73109ZM12.9189 6.61509C12.9614 6.80909 12.75 7.06709 12.5183 7.07909C12.3829 7.08559 12.2485 6.95809 12.2474 6.80409C12.2421 6.55809 12.3908 6.38059 12.5715 6.22459C12.5816 6.21559 12.6044 6.22109 12.657 6.21559C12.6071 6.31209 12.5635 6.38759 12.5316 6.46259C12.4987 6.53559 12.4636 6.61009 12.4541 6.68659C12.4471 6.73009 12.4769 6.80859 12.512 6.82259C12.5576 6.84009 12.6347 6.82759 12.6809 6.80109C12.7627 6.75459 12.8307 6.68709 12.9189 6.61509Z" fill="white"/>
<path fill-rule="evenodd" clip-rule="evenodd" d="M20.5445 6.3331C20.587 6.2286 20.6327 6.1241 20.68 6.0131C20.7708 6.1156 20.7878 6.4001 20.7167 6.4846C20.6598 6.5516 20.5849 6.5581 20.5142 6.5061C20.4346 6.4471 20.3724 6.4461 20.2901 6.5071C20.1923 6.5821 20.1248 6.5631 20.0935 6.4516C20.068 6.3616 20.0717 6.2671 20.0637 6.1766C20.0797 6.1711 20.0977 6.1671 20.1126 6.1626C20.1535 6.2261 20.1923 6.2901 20.2481 6.3801C20.2943 6.2681 20.3262 6.1831 20.374 6.0656C20.4239 6.1771 20.4611 6.2516 20.4967 6.3296C20.5121 6.3296 20.5281 6.3321 20.5445 6.3331ZM12.0073 9.8436C12.0291 9.6676 12.0493 9.5111 12.0674 9.3546C11.8203 9.3231 11.7651 9.2461 11.8533 9.0766C11.8788 9.0286 11.9505 8.9571 11.9898 8.9646C12.0631 8.9761 12.1572 9.0191 12.1912 9.0781C12.2979 9.2586 12.2188 9.6621 12.0668 9.8141C12.0599 9.8231 12.0435 9.8256 12.0073 9.8436ZM9.1269 4.5301C9.14231 4.6251 9.14497 4.6891 9.16515 4.7476C9.17843 4.7911 9.21615 4.8266 9.24059 4.8671C9.28043 4.8431 9.32931 4.8266 9.35693 4.7956C9.3989 4.7386 9.42706 4.6736 9.49081 4.6111C9.49771 4.6626 9.49771 4.7156 9.51525 4.7601C9.53703 4.8071 9.57847 4.8456 9.60981 4.8876C9.64062 4.8516 9.67515 4.8191 9.70331 4.7806C9.71925 4.7591 9.72615 4.7326 9.74209 4.7031C9.82762 4.8116 9.81859 4.9446 9.72403 5.0211C9.60609 5.1156 9.53278 5.0271 9.46159 4.9541C9.26662 5.0711 9.18906 5.0756 9.09609 4.9766C8.98878 4.8591 8.98718 4.6891 9.1269 4.5301ZM24.3286 9.1301C24.3212 9.0666 24.3068 9.0286 24.3143 8.9966C24.3754 8.8051 24.2936 8.6741 24.1326 8.5661C24.0152 8.4891 24.0152 8.3956 24.1347 8.3181C24.1724 8.2941 24.2511 8.2851 24.2888 8.3056C24.5316 8.4381 24.6006 8.8686 24.4179 9.0646C24.4025 9.0821 24.3796 9.0946 24.3286 9.1301ZM15.5497 5.7681C15.5497 5.7116 15.5471 5.6556 15.5497 5.5996C15.5662 5.3516 15.5162 5.1201 15.367 4.9086C15.3415 4.8741 15.3197 4.8131 15.3346 4.7806C15.3614 4.7309 15.4057 4.6915 15.4599 4.6691C15.4844 4.6621 15.5518 4.7181 15.571 4.7566C15.6862 4.9871 15.7091 5.2316 15.6788 5.4796C15.6677 5.5801 15.6363 5.6781 15.6135 5.7776C15.5922 5.7756 15.5704 5.7706 15.5497 5.7681ZM7.22503 5.3211C7.23618 5.1096 7.352 4.9361 7.26275 4.7471C7.22928 4.7596 7.21015 4.7716 7.18837 4.7771C7.1379 4.7841 7.08425 4.7881 7.03271 4.7931C7.0444 4.7416 7.03962 4.6771 7.07203 4.6401C7.1379 4.5666 7.20696 4.4606 7.3334 4.5091C7.44815 4.5546 7.45346 4.6671 7.44603 4.7696C7.4354 4.9636 7.352 5.1296 7.22503 5.3211Z" fill="white"/>
</g>
</g>
<defs>
<clipPath id="clip0_1112_810">
<rect width="34" height="21" fill="white"/>
</clipPath>
<clipPath id="clip1_1112_810">
<rect width="34" height="32" fill="white" transform="translate(0 -5)"/>
</clipPath>
</defs>
</svg>
