<svg width="34" height="21" viewBox="0 0 34 21" fill="none" xmlns="http://www.w3.org/2000/svg">
<path d="M7.84123 14.375C7.29548 14.375 6.78751 14.2958 6.31733 14.1375C5.85554 13.9875 5.45253 13.775 5.10829 13.5C4.76405 13.2333 4.49117 12.9125 4.28967 12.5375C4.09656 12.1708 4 11.7708 4 11.3375C4 11.1792 4.01259 10.975 4.03778 10.725C4.06297 10.475 4.09656 10.1875 4.13854 9.8625C4.18891 9.5375 4.24349 9.19167 4.30226 8.825L5.96469 9.05C5.88073 9.575 5.81356 10.0417 5.76319 10.45C5.71281 10.8583 5.68762 11.1458 5.68762 11.3125C5.68762 11.6292 5.77578 11.9083 5.9521 12.15C6.12842 12.3917 6.3761 12.5792 6.69516 12.7125C7.0226 12.8542 7.40463 12.925 7.84123 12.925H11.4054C11.9511 12.925 12.3583 12.7875 12.627 12.5125C12.8957 12.2375 13.03 11.8375 13.03 11.3125V10.8375H14.7051V11.3125C14.7051 11.9125 14.5707 12.4417 14.302 12.9C14.0334 13.3583 13.6513 13.7167 13.156 13.975C12.669 14.2417 12.0855 14.375 11.4054 14.375H7.84123ZM12.4759 11.275C12.0897 11.275 11.716 11.2333 11.355 11.15C11.0024 11.0667 10.6665 10.9167 10.3475 10.7L11.3046 9.5C11.439 9.59167 11.5565 9.6625 11.6573 9.7125C11.7664 9.75417 11.884 9.78333 12.0099 9.8C12.1442 9.81667 12.2996 9.825 12.4759 9.825H15.2592V11.275H12.4759ZM15.2592 11.275V9.825C15.3516 9.825 15.4145 9.89167 15.4481 10.025C15.4901 10.15 15.5111 10.325 15.5111 10.55C15.5111 10.7667 15.4901 10.9417 15.4481 11.075C15.4145 11.2083 15.3516 11.275 15.2592 11.275ZM7.62712 17V15.575H9.31475V17H7.62712ZM9.35253 17V15.575H11.0401V17H9.35253Z" fill="white"/>
<path d="M15.2541 11.275V9.825H17.5588L16.5765 10.6375V5H18.2641V11.275H15.2541ZM15.2541 11.275C15.1533 11.275 15.0862 11.2083 15.0526 11.075C15.019 10.9417 15.0022 10.7667 15.0022 10.55C15.0022 10.325 15.019 10.15 15.0526 10.025C15.0862 9.89167 15.1533 9.825 15.2541 9.825V11.275ZM16.5765 13.9375V12.5125H18.2641V13.9375H16.5765Z" fill="white"/>
<path d="M22.0993 11.275V9.825H23.724V11.275H22.0993ZM19.656 14.375C19.5469 14.375 19.4293 14.3708 19.3034 14.3625C19.1775 14.3542 19.0473 14.3417 18.913 14.325L18.976 12.9C19.1103 12.9083 19.2362 12.9167 19.3538 12.925C19.4797 12.9333 19.5721 12.9375 19.6309 12.9375C19.9583 12.9375 20.2186 12.8083 20.4117 12.55C20.6132 12.2917 20.714 11.9292 20.714 11.4625V5H22.4016V11.4625C22.4016 12.0292 22.284 12.5333 22.0489 12.975C21.8222 13.4167 21.5032 13.7583 21.0918 14C20.6804 14.25 20.2018 14.375 19.656 14.375ZM23.724 11.275V9.825C23.8247 9.825 23.8919 9.89167 23.9255 10.025C23.9591 10.15 23.9758 10.325 23.9758 10.55C23.9758 10.7667 23.9591 10.9417 23.9255 11.075C23.8919 11.2083 23.8247 11.275 23.724 11.275Z" fill="white"/>
<path d="M26.0958 11.075C25.6676 10.675 25.3444 10.25 25.1261 9.8C24.9162 9.35 24.8112 8.87083 24.8112 8.3625C24.8112 7.87083 24.9036 7.42083 25.0883 7.0125C25.273 6.59583 25.5249 6.2375 25.8439 5.9375C26.163 5.6375 26.5324 5.40833 26.9522 5.25C27.3804 5.08333 27.8296 5 28.2998 5C28.5517 5 28.8161 5.025 29.0932 5.075C29.3703 5.125 29.6348 5.19167 29.8867 5.275L29.3829 6.6375C29.2066 6.57917 29.0302 6.53333 28.8539 6.5C28.686 6.46667 28.5223 6.45 28.3628 6.45C27.9933 6.45 27.6659 6.53333 27.3804 6.7C27.0949 6.85833 26.8724 7.07917 26.7129 7.3625C26.5618 7.64583 26.4862 7.97083 26.4862 8.3375C26.4862 9.02083 26.7549 9.59583 27.2923 10.0625L26.0958 11.075ZM23.7281 11.275V9.825H30V11.275H23.7281ZM23.7281 11.275C23.6273 11.275 23.5602 11.2083 23.5266 11.075C23.493 10.9417 23.4762 10.7667 23.4762 10.55C23.4762 10.325 23.493 10.15 23.5266 10.025C23.5602 9.89167 23.6273 9.825 23.7281 9.825V11.275Z" fill="white"/>
</svg>
