<svg width="34" height="21" viewBox="0 0 34 21" fill="none" xmlns="http://www.w3.org/2000/svg">
<g clip-path="url(#clip0_1112_824)">
<g clip-path="url(#clip1_1112_824)">
<path d="M-1 5.6875H35V16.3125H-1V5.6875Z" fill="white"/>
<path fill-rule="evenodd" clip-rule="evenodd" d="M21.1793 8.69544C21.0213 8.95204 20.8778 9.18685 20.7333 9.42379C20.4453 9.89288 20.1612 10.363 19.8698 10.8305C19.8175 10.9145 19.8153 10.9772 19.8687 11.0638C20.2844 11.7342 20.6956 12.4083 21.1073 13.082C21.127 13.1154 21.1467 13.1532 21.1743 13.2036H21.0297C20.2006 13.2036 19.3731 13.2036 18.544 13.1999C18.4512 13.1999 18.4045 13.2297 18.3601 13.304C17.9466 13.9846 17.5298 14.6646 17.1136 15.3456C17.095 15.3775 17.0731 15.4073 17.0455 15.4492C17.0179 15.411 16.996 15.3812 16.9763 15.3499C16.5623 14.6725 16.1472 13.9978 15.7383 13.32C15.6865 13.2323 15.6325 13.1994 15.5251 13.1994C14.7055 13.2052 13.8854 13.2031 13.0641 13.2031H12.9117C12.9415 13.1526 12.9612 13.1144 12.9837 13.0772C13.3954 12.4004 13.8089 11.7225 14.2274 11.0483C14.2718 10.9724 14.2718 10.9187 14.224 10.8454C13.8123 10.1776 13.4033 9.50507 12.9933 8.83516C12.9691 8.79319 12.946 8.75229 12.9111 8.69491H13.0579C13.8775 8.69491 14.7004 8.69279 15.5178 8.69597C15.6235 8.69597 15.6809 8.67047 15.7343 8.58282C16.1421 7.90654 16.5573 7.23291 16.9679 6.56088C16.9876 6.52635 17.0129 6.49076 17.041 6.44507C17.0708 6.48969 17.0944 6.52104 17.1153 6.55504C17.5281 7.22813 17.9404 7.89963 18.3477 8.57538C18.4039 8.66782 18.4653 8.69597 18.5727 8.69597C19.3889 8.69279 20.2039 8.69491 21.0224 8.69491L21.1793 8.69544ZM17.0376 12.5013C17.3194 12.5013 17.6001 12.5003 17.8825 12.5034C17.9573 12.5034 18.004 12.4838 18.0434 12.4195C18.3252 11.9557 18.6059 11.4919 18.8933 11.0303C18.9293 10.9724 18.9293 10.9267 18.8922 10.8672C18.6053 10.4034 18.3241 9.94069 18.0423 9.47585C18.0068 9.41688 17.9658 9.39191 17.8921 9.39457C17.3239 9.39616 16.7558 9.39616 16.1933 9.39457C16.1185 9.39191 16.0791 9.42007 16.0426 9.47851C15.7636 9.93963 15.4846 10.4002 15.1988 10.8582C15.1572 10.9267 15.1583 10.9745 15.1988 11.0409C15.4846 11.4994 15.7669 11.96 16.0426 12.4216C16.0797 12.4801 16.1208 12.504 16.1933 12.504C16.4774 12.5003 16.7558 12.5013 17.0376 12.5013ZM14.7156 11.6524C14.5396 11.944 14.3753 12.2113 14.206 12.4912H15.2286C15.0565 12.2107 14.8962 11.9451 14.7156 11.6524ZM19.3703 11.6524C19.1914 11.9456 19.0306 12.2123 18.8596 12.4912H19.8844L19.3703 11.6524ZM14.2015 9.4036C14.377 9.68941 14.5413 9.95663 14.7151 10.2446L15.2292 9.4036H14.2015ZM18.8579 9.4036L19.3714 10.2446C19.5492 9.95185 19.7129 9.68357 19.8844 9.4036H18.8579ZM16.5291 8.68535H17.5568C17.3824 8.40326 17.2193 8.13338 17.0433 7.84651C16.8655 8.13657 16.7035 8.40379 16.5291 8.68535ZM16.5269 13.2068C16.7041 13.4953 16.8672 13.7641 17.0433 14.052C17.2233 13.7588 17.3858 13.4905 17.5568 13.2068H16.5269Z" fill="#1B75BB"/>
<path d="M1.53125 26.5833H35.8438C38.4656 26.5833 37.3063 21.3907 38.0938 19.5H-4.65625C-3.86875 21.3907 -1.09056 26.5833 1.53125 26.5833ZM40.3438 -6L0.125 -3.16667C-2.49681 -3.16667 -9.775 2.30928 -10.5625 4.2L35.5625 2.5C34.7744 0.609282 42.9656 -6 40.3438 -6Z" fill="white"/>
<path d="M35 5.15625C35 4.19841 35.3313 3.29794 34.9994 2.5H-1.28126C-1.61313 3.29794 -1.00001 4.19841 -1.00001 5.15625V5.6875H35V5.15625ZM35 16.3125H-1.00001V16.8438C-1.00001 17.8016 -1.33189 18.7021 -1.00001 19.5H35.2813C35.6126 18.7021 34.9994 17.8016 34.9994 16.8438L35 16.3125Z" fill="#1B75BB"/>
</g>
</g>
<defs>
<clipPath id="clip0_1112_824">
<rect width="34" height="21" fill="white"/>
</clipPath>
<clipPath id="clip1_1112_824">
<rect width="36" height="34" fill="white" transform="translate(-1 -6)"/>
</clipPath>
</defs>
</svg>
