<svg width="34" height="21" viewBox="0 0 34 21" fill="none" xmlns="http://www.w3.org/2000/svg">
<path d="M6.58667 8C7.54452 8 8.26465 8.19125 8.74707 8.57376C9.23648 8.94988 9.48118 9.53958 9.48118 10.3428V13.2212C9.48118 13.2849 9.45671 13.3423 9.40777 13.3933C9.35883 13.4379 9.29591 13.4602 9.219 13.4602H7.971C7.8941 13.4602 7.83117 13.4379 7.78223 13.3933C7.73329 13.3487 7.70882 13.2913 7.70882 13.2212V10.3906C7.70882 9.66389 7.3138 9.30051 6.52375 9.30051H5.84207C5.77915 9.51727 5.7337 9.73402 5.70574 9.95077C5.68476 10.1675 5.67427 10.4193 5.67427 10.7062L5.75817 13.2212C5.75817 13.2849 5.7337 13.3423 5.68476 13.3933C5.63582 13.4379 5.5729 13.4602 5.49599 13.4602L3.26218 13.4507C3.19227 13.4507 3.12934 13.4284 3.07341 13.3837C3.02447 13.3327 3 13.2754 3 13.2116V12.4562C3 12.386 3.02447 12.3287 3.07341 12.284C3.12934 12.2394 3.19227 12.2171 3.26218 12.2171H4.11166V10.7158C4.11166 10.1803 4.16759 9.70852 4.27946 9.30051H3.65022C3.5803 9.30051 3.51738 9.2782 3.46144 9.23358C3.4125 9.18257 3.38803 9.1252 3.38803 9.06145V8.23907C3.38803 8.16894 3.4125 8.11156 3.46144 8.06694C3.51738 8.02231 3.5803 8 3.65022 8H6.58667Z" fill="white"/>
<path d="M10.8851 11.1939C10.8152 11.1939 10.7523 11.1716 10.6963 11.127C10.6474 11.076 10.6229 11.0186 10.6229 10.9548V8.23907C10.6229 8.16894 10.6474 8.11156 10.6963 8.06694C10.7523 8.02231 10.8152 8 10.8851 8H12.196C12.2729 8 12.3358 8.02231 12.3848 8.06694C12.4407 8.11156 12.4687 8.16894 12.4687 8.23907V10.9548C12.4687 11.025 12.4407 11.0823 12.3848 11.127C12.3358 11.1716 12.2729 11.1939 12.196 11.1939H10.8851Z" fill="white"/>
<path d="M16.7804 13.4602C16.7035 13.4602 16.6371 13.4379 16.5811 13.3933C16.5322 13.3487 16.5077 13.2913 16.5077 13.2212V10.3906C16.5077 9.66389 16.1127 9.30051 15.3226 9.30051H13.7286C13.6586 9.30051 13.5957 9.2782 13.5398 9.23358C13.4908 9.18257 13.4664 9.1252 13.4664 9.06145V8.23907C13.4664 8.16894 13.4908 8.11156 13.5398 8.06694C13.5957 8.02231 13.6586 8 13.7286 8H15.3856C16.3574 8 17.081 8.18169 17.5564 8.54507C18.0389 8.90845 18.2801 9.50452 18.2801 10.3333V13.2212C18.2801 13.2849 18.2556 13.3423 18.2067 13.3933C18.1577 13.4379 18.0948 13.4602 18.0179 13.4602H16.7804Z" fill="white"/>
<path d="M19.5253 13.4602C19.4554 13.4602 19.3924 13.4379 19.3365 13.3933C19.2876 13.3423 19.2631 13.2849 19.2631 13.2212V12.3988C19.2631 12.3287 19.2876 12.2713 19.3365 12.2267C19.3924 12.182 19.4554 12.1597 19.5253 12.1597H22.1576V10.3906C22.1576 9.67027 21.7626 9.31008 20.9725 9.31008H19.6302C19.5532 9.31008 19.4903 9.28776 19.4414 9.24314C19.3924 9.19214 19.368 9.13157 19.368 9.06145V8.23907C19.368 8.16894 19.3924 8.11156 19.4414 8.06694C19.4973 8.02231 19.5602 8 19.6302 8H21.025C22.0038 8 22.7414 8.18806 23.2378 8.56419C23.7412 8.94032 23.9929 9.54914 23.9929 10.3906V12.1597H24.3599C24.4369 12.1597 24.4998 12.182 24.5487 12.2267C24.5977 12.2713 24.6221 12.3287 24.6221 12.3988V13.2212C24.6221 13.2849 24.5977 13.3423 24.5487 13.3933C24.4998 13.4379 24.4369 13.4602 24.3599 13.4602H19.5253Z" fill="white"/>
<path d="M30.7273 8C30.8042 8 30.8672 8.02231 30.9161 8.06694C30.972 8.11156 31 8.16894 31 8.23907V11.0696C31 11.7007 30.7588 12.2267 30.2764 12.6474C29.794 13.0618 29.1158 13.3391 28.2418 13.4794L25.5466 13.9957C25.4697 14.0085 25.4032 13.9926 25.3473 13.9479C25.2914 13.9033 25.2634 13.8459 25.2634 13.7758V12.9439C25.2634 12.8801 25.2844 12.8259 25.3263 12.7813C25.3683 12.7303 25.4277 12.6984 25.5046 12.6857L26.6687 12.4275L25.4312 8.3825C25.3963 8.27413 25.3788 8.21038 25.3788 8.19125C25.3788 8.14025 25.3998 8.09563 25.4417 8.05738C25.4837 8.01913 25.5326 8 25.5885 8H26.9624C27.0253 8 27.0777 8.01594 27.1197 8.04781C27.1616 8.07331 27.1896 8.10519 27.2036 8.14344L28.2418 12.0545C28.6194 11.9207 28.8781 11.7422 29.0179 11.519C29.1577 11.2895 29.2276 10.9803 29.2276 10.5915V8.23907C29.2276 8.16894 29.2521 8.11156 29.301 8.06694C29.35 8.02231 29.4129 8 29.4898 8H30.7273Z" fill="white"/>
</svg>
