<svg width="2000" height="78" viewBox="0 0 2000 78" fill="none" xmlns="http://www.w3.org/2000/svg">
<g clip-path="url(#clip0_1378_1121)">
<path d="M1794 41C1794.09 40.848 1794.13 40.6756 1794.13 40.5C1794.13 40.3245 1794.09 40.152 1794 40H1792C1792 41 1793 42 1794 41ZM1791 50C1791.29 49.899 1791.55 49.7334 1791.76 49.5159C1791.98 49.2984 1792.14 49.0347 1792.24 48.7452C1792.33 48.4556 1792.36 48.1478 1792.32 47.8453C1792.28 47.5428 1792.17 47.2536 1792 47C1792 46 1790 45 1789 46C1788.82 46.3041 1788.73 46.6489 1788.73 47C1788.73 47.3511 1788.82 47.696 1789 48C1789 48.5304 1789.21 49.0392 1789.59 49.4142C1789.96 49.7893 1790.47 50 1791 50ZM1785 45C1785.2 45.3469 1785.49 45.6275 1785.85 45.8056C1786.2 45.9838 1786.6 46.0515 1787 46C1788 45 1789 41 1788 40C1787.94 39.2294 1787.58 38.5129 1787 38C1786.7 37.8245 1786.35 37.7321 1786 37.7321C1785.65 37.7321 1785.3 37.8245 1785 38C1784.59 38.2489 1784.25 38.5918 1784 39C1783.56 39.7601 1783.33 40.6223 1783.33 41.5C1783.33 42.3777 1783.56 43.2399 1784 44C1784.25 44.4083 1784.59 44.7511 1785 45ZM1824 51C1826 53 1830 50 1829 47C1828.8 46.4239 1828.47 45.9018 1828.03 45.4735C1827.6 45.0452 1827.07 44.7221 1826.49 44.5291C1825.91 44.336 1825.3 44.2781 1824.69 44.3597C1824.09 44.4414 1823.51 44.6604 1823 45C1822.53 45.1432 1822.1 45.4007 1821.75 45.7495C1821.4 46.0984 1821.14 46.5279 1821 47C1820.97 47.9084 1821.25 48.7995 1821.8 49.5265C1822.34 50.2536 1823.12 50.7733 1824 51ZM1881 25C1883 26 1885 24 1885 22C1884.89 21.5928 1884.69 21.2135 1884.43 20.8871C1884.16 20.5607 1883.82 20.2944 1883.45 20.1056C1883.07 19.9168 1882.66 19.8098 1882.23 19.7917C1881.81 19.7735 1881.39 19.8445 1881 20C1880.65 20.1959 1880.37 20.4909 1880.19 20.8472C1880.02 21.2035 1879.95 21.605 1880 22C1879.87 22.5436 1879.9 23.1124 1880.07 23.6425C1880.25 24.1725 1880.57 24.6427 1881 25ZM1865 55C1865.09 54.848 1865.13 54.6756 1865.13 54.5C1865.13 54.3245 1865.09 54.152 1865 54C1866 53 1864 53 1864 53C1863.73 53 1863.48 53.1054 1863.29 53.2929C1863.11 53.4804 1863 53.7348 1863 54L1865 55ZM1461 50C1461.29 49.899 1461.55 49.7334 1461.76 49.5159C1461.98 49.2984 1462.14 49.0347 1462.24 48.7452C1462.33 48.4556 1462.36 48.1478 1462.32 47.8453C1462.28 47.5428 1462.17 47.2536 1462 47C1462 46 1460 45 1459 46C1458.82 46.3041 1458.73 46.6489 1458.73 47C1458.73 47.3511 1458.82 47.696 1459 48C1459 48.5304 1459.21 49.0392 1459.59 49.4142C1459.96 49.7893 1460.47 50 1461 50ZM1464 41C1464.09 40.848 1464.13 40.6756 1464.13 40.5C1464.13 40.3245 1464.09 40.152 1464 40H1462C1462 41 1463 42 1464 41ZM1455 45C1455.2 45.3469 1455.49 45.6275 1455.85 45.8056C1456.2 45.9838 1456.6 46.0515 1457 46C1458 45 1459 41 1458 40C1458.05 39.605 1457.98 39.2035 1457.81 38.8472C1457.63 38.4909 1457.35 38.1959 1457 38C1456.7 37.8245 1456.35 37.7321 1456 37.7321C1455.65 37.7321 1455.3 37.8245 1455 38C1454.59 38.2489 1454.25 38.5918 1454 39C1453.56 39.7601 1453.33 40.6223 1453.33 41.5C1453.33 42.3777 1453.56 43.2399 1454 44C1454.25 44.4083 1454.59 44.7511 1455 45ZM1551 25C1553 26 1555 24 1555 22C1554.89 21.5928 1554.69 21.2135 1554.43 20.8871C1554.16 20.5607 1553.82 20.2944 1553.45 20.1056C1553.07 19.9168 1552.66 19.8098 1552.23 19.7917C1551.81 19.7735 1551.39 19.8445 1551 20C1550.65 20.1959 1550.37 20.4909 1550.19 20.8472C1550.02 21.2035 1549.95 21.605 1550 22C1549.87 22.5436 1549.9 23.1124 1550.07 23.6425C1550.25 24.1725 1550.57 24.6427 1551 25ZM1494 51C1496 53 1500 50 1499 47C1498.8 46.4239 1498.47 45.9018 1498.03 45.4735C1497.6 45.0452 1497.07 44.7221 1496.49 44.5291C1495.91 44.336 1495.3 44.2781 1494.69 44.3597C1494.09 44.4414 1493.51 44.6604 1493 45C1492.53 45.1432 1492.1 45.4007 1491.75 45.7495C1491.4 46.0984 1491.14 46.5279 1491 47C1490.97 47.9084 1491.25 48.7995 1491.8 49.5265C1492.34 50.2536 1493.12 50.7733 1494 51ZM1535 55C1535.09 54.848 1535.13 54.6756 1535.13 54.5C1535.13 54.3245 1535.09 54.152 1535 54C1536 53 1534 53 1534 53C1533.73 53 1533.48 53.1054 1533.29 53.2929C1533.11 53.4804 1533 53.7348 1533 54L1535 55ZM1121 50C1121.29 49.899 1121.55 49.7334 1121.76 49.5159C1121.98 49.2984 1122.14 49.0347 1122.24 48.7452C1122.33 48.4556 1122.36 48.1478 1122.32 47.8453C1122.28 47.5428 1122.17 47.2536 1122 47C1122 46 1120 45 1119 46C1118.82 46.3041 1118.73 46.6489 1118.73 47C1118.73 47.3511 1118.82 47.696 1119 48C1119 48.5304 1119.21 49.0392 1119.59 49.4142C1119.96 49.7893 1120.47 50 1121 50ZM1115 45C1115.2 45.444 1115.56 45.7996 1116 46C1118 45 1119 41 1118 40C1118.05 39.605 1117.98 39.2035 1117.81 38.8472C1117.63 38.4909 1117.35 38.1959 1117 38C1116.7 37.8245 1116.35 37.7321 1116 37.7321C1115.65 37.7321 1115.3 37.8245 1115 38C1114.59 38.2489 1114.25 38.5918 1114 39C1113.56 39.7601 1113.33 40.6223 1113.33 41.5C1113.33 42.3777 1113.56 43.2399 1114 44C1114.25 44.4083 1114.59 44.7511 1115 45ZM1124 41C1124.09 40.848 1124.13 40.6756 1124.13 40.5C1124.13 40.3245 1124.09 40.152 1124 40H1122C1121 41 1123 42 1124 41ZM1153 51C1156 53 1160 50 1159 47C1158.89 46.2411 1158.56 45.531 1158.05 44.9545C1157.54 44.3779 1156.88 43.9593 1156.14 43.7484C1155.41 43.5376 1154.62 43.5435 1153.89 43.7654C1153.15 43.9873 1152.5 44.4159 1152 45C1151.42 45.5129 1151.06 46.2294 1151 47C1150.9 47.7901 1151.03 48.593 1151.39 49.3056C1151.75 50.0183 1152.31 50.6083 1153 51ZM1211 25C1213 26 1215 24 1215 22C1214.96 21.4409 1214.76 20.905 1214.43 20.453C1214.1 20.001 1213.64 19.6511 1213.12 19.4428C1212.6 19.2346 1212.03 19.1764 1211.48 19.2749C1210.93 19.3734 1210.42 19.6246 1210 20C1209.65 20.1959 1209.37 20.4909 1209.19 20.8472C1209.02 21.2035 1208.95 21.605 1209 22C1208.96 22.6493 1209.14 23.2929 1209.5 23.834C1209.86 24.3751 1210.39 24.7843 1211 25ZM1195 55C1195.09 54.848 1195.13 54.6756 1195.13 54.5C1195.13 54.3245 1195.09 54.152 1195 54C1196 53 1194 53 1194 53C1193.87 52.7348 1193.63 52.5331 1193.35 52.4394C1193.07 52.3456 1192.77 52.3674 1192.5 52.5C1192.23 52.6326 1192.03 52.8652 1191.94 53.1465C1191.85 53.4278 1191.87 53.7348 1192 54L1195 55Z" fill="#171616"/>
<path d="M87 78H2000V53C1995 52 1987 38 1987 18C1987 13 1988 10 1985 9.00004H1980C1975 12 1980 18 1978 22C1978 25 1974 29 1971 26L1968 23C1966 22 1964 24 1964 26C1963 30 1967 45 1962 51C1958 56 1953 57 1950 55C1943 52 1931 53 1927 46C1924 42 1924 21 1928 16C1929 14 1931 12 1931 9.00004C1931 4.00004 1926 3.74764e-05 1921 3.74764e-05C1920.01 -0.18914 1918.99 -0.18914 1918 3.74764e-05C1912 2.00004 1909 9.00004 1914 15C1917 18 1919 29 1919 36C1919 48 1912 58 1905 66L1891 52C1889.95 50.5824 1889.23 48.9514 1888.88 47.2231C1888.54 45.4947 1888.58 43.7115 1889 42C1890 36 1888 30 1882 30C1877 31 1875 35 1876 39C1876.31 40.788 1876.99 42.4912 1878 44C1880 48 1876 57 1871 59C1868.63 59.9254 1866.04 60.1344 1863.55 59.6011C1861.06 59.0678 1858.78 57.8157 1857 56C1853 52 1854 48 1854 44C1854 22 1856 17 1856 11C1856 8.00004 1854 4.00004 1851 4.00004C1844 2.00004 1840 6.00004 1840 13C1841 21 1844 23 1843 41C1843 43 1841 45 1840 44C1838 43 1839 38 1839 36C1838.88 35.4661 1838.66 34.9616 1838.34 34.5176C1838.02 34.0736 1837.62 33.6995 1837.15 33.4184C1836.68 33.1373 1836.16 32.9552 1835.62 32.8832C1835.08 32.8113 1834.53 32.851 1834 33C1833.27 33.1684 1832.6 33.539 1832.07 34.0695C1831.54 34.6 1831.17 35.269 1831 36V46C1833 54 1826 61 1816 59C1808 58 1804 51 1803 34L1805 28C1805.54 27.3037 1805.92 26.4977 1806.11 25.6391C1806.3 24.7805 1806.3 23.8903 1806.11 23.0316C1805.92 22.1728 1805.54 21.3666 1805 20.6699C1804.47 19.9732 1803.78 19.4031 1803 19C1801.96 18.3694 1800.81 17.9556 1799.6 17.7838C1798.4 17.6119 1797.17 17.6855 1796 18C1792 20 1792 25 1793 28C1793.6 29.0451 1794.26 30.0475 1795 31C1796.11 32.4525 1796.8 34.1818 1797 36L1796 48C1793.71 53.3942 1790.68 58.4429 1787 63C1779 54 1771 51 1771 45C1772 42 1772 39 1770 37H1764C1762 39 1763 41 1763 43C1763 48 1762 51 1757 51C1748 49 1750 43 1750 38L1749 33C1748 32 1747 33 1746 34C1744 35 1743 37 1741 36C1738 35 1739 30 1740 28C1740.19 25.6708 1740.19 23.3293 1740 21C1740 17 1736 13 1731 13C1726 13 1723 18 1724 22L1725 35C1724 41 1721 43 1718 43C1712 43 1712 37 1708 39C1704 40 1706 45 1704 49C1703 50 1701 49 1700 48C1699 47 1699 44 1698 44C1696 44 1697 47 1696 49C1695 51 1693 52 1689 51C1684 51 1685 44 1686 43C1686.18 42.2664 1686.52 41.5827 1687 41C1692 36 1689 30 1682 30C1677 29 1672 35 1675 40C1678 45 1677 50 1675 56C1674.94 55.2294 1674.58 54.5129 1674 54C1672.76 53.3617 1671.39 53.0194 1670 53C1665 52 1657 38 1657 18C1657 13 1658 10 1655 9.00004H1650C1645 12 1650 19 1649 22C1648 25 1644 29 1641 26L1638 23C1636 22 1634 24 1634 26C1633 30 1637 45 1632 51C1628 56 1623 57 1620 55C1613 53 1601 54 1597 46C1594 42 1594 21 1598 16C1599 14 1601 12 1601 9.00004C1601 5.00004 1596 3.74764e-05 1591 3.74764e-05C1590.01 -0.18914 1588.99 -0.18914 1588 3.74764e-05C1582 2.00004 1579 9.00004 1584 15C1587 18 1589 29 1589 36C1589 48 1582 58 1575 66L1561 52C1559.95 50.5824 1559.23 48.9514 1558.88 47.2231C1558.54 45.4947 1558.58 43.7115 1559 42C1560 36 1558 30 1552 30C1547 31 1545 35 1546 39C1546.31 40.788 1546.99 42.4912 1548 44C1550 48 1546 57 1541 59C1538.63 59.9254 1536.04 60.1344 1533.55 59.6011C1531.06 59.0678 1528.78 57.8157 1527 56C1523 52 1524 48 1524 44C1524 22 1526 17 1526 11C1526 8.00004 1524 4.00004 1521 4.00004C1515 2.00004 1510 6.00004 1511 13C1511 21 1514 23 1514 41C1514 43 1512 46 1510 44C1508 43 1510 38 1509 36C1508.88 35.4661 1508.66 34.9616 1508.34 34.5176C1508.02 34.0736 1507.62 33.6995 1507.15 33.4184C1506.68 33.1373 1506.16 32.9552 1505.62 32.8832C1505.08 32.8113 1504.53 32.851 1504 33C1503.27 33.1684 1502.6 33.539 1502.07 34.0695C1501.54 34.6 1501.17 35.269 1501 36C1500 40 1501 43 1502 46C1503 54 1496 61 1486 59C1478 58 1474 51 1474 34L1476 28C1476.51 27.2391 1476.84 26.3717 1476.96 25.4642C1477.08 24.5568 1477 23.6333 1476.71 22.7646C1476.42 21.8959 1475.93 21.1049 1475.29 20.4524C1474.65 19.7999 1473.86 19.3031 1473 19C1471.89 18.5325 1470.7 18.2916 1469.5 18.2916C1468.3 18.2916 1467.11 18.5325 1466 19C1463 20 1462 25 1463 28C1463.92 29.0772 1464.92 30.0803 1466 31C1466.76 32.5523 1467.1 34.275 1467 36L1466 48C1463.71 53.3942 1460.68 58.4429 1457 63C1449 54 1441 51 1441 45C1442 42 1442 39 1440 37H1434C1432 39 1433 41 1433 43C1433 48 1432 51 1427 51C1418 49 1420 43 1420 38L1419 33C1418 32 1417 33 1415 34C1414 35 1413 37 1411 36C1408 35 1409 30 1410 28C1410.19 25.6708 1410.19 23.3293 1410 21C1410 17 1406 13 1401 13C1396 13 1393 18 1394 22L1395 35C1394 41 1391 43 1388 43C1382 43 1382 37 1378 39C1374 40 1376 45 1374 49C1373 50 1371 49 1370 48C1369 47 1369 44 1368 44C1366 44 1367 47 1366 49C1365 51 1362 52 1359 51C1354 51 1355 44 1356 43C1356.18 42.2664 1356.52 41.5827 1357 41C1361 36 1359 30 1352 30C1347 29 1341 35 1344 40C1350 50 1344 59 1338 67L1335 60C1335 58 1336 55 1333 54C1332.07 53.4923 1331.05 53.1537 1330 53C1325 52 1317 38 1317 18C1317 13 1317 10 1315 9.00004H1310C1305 12 1310 19 1308 22C1307 25 1304 29 1301 26L1298 23C1296 22 1294 24 1294 26C1293 30 1297 45 1292 51C1288 56 1283 57 1280 55C1273 53 1261 54 1256 46C1254 42 1254 21 1257 16C1259 14 1261 12 1261 9.00004C1260 5.00004 1256 3.74764e-05 1251 3.74764e-05C1250.01 -0.18914 1248.99 -0.18914 1248 3.74764e-05C1242 2.00004 1239 9.00004 1244 15C1247 18 1249 29 1249 36C1249 48 1242 58 1235 66L1221 52C1219.78 50.6668 1218.87 49.075 1218.36 47.3434C1217.84 45.6118 1217.71 43.7852 1218 42C1220 36 1218 30 1212 30C1207 31 1205 35 1206 39C1206.31 40.788 1206.99 42.4912 1208 44C1210 48 1206 57 1201 59C1198.63 59.9254 1196.04 60.1344 1193.55 59.6011C1191.06 59.0678 1188.78 57.8157 1187 56C1183 52 1183 48 1183 44C1183 22 1186 17 1186 11C1186 8.00004 1184 4.00004 1181 4.00004C1174 2.00004 1170 6.00004 1170 13C1171 21 1174 23 1173 41C1173 43 1171 45 1170 44C1167 43 1169 38 1168 36C1167.77 35.12 1167.25 34.3433 1166.53 33.798C1165.8 33.2527 1164.91 32.9713 1164 33C1163.27 33.1684 1162.6 33.539 1162.07 34.0695C1161.54 34.6 1161.17 35.269 1161 36V46C1162 54 1155 61 1146 59C1138 58 1134 51 1133 34L1135 28C1135.51 27.2391 1135.84 26.3717 1135.96 25.4642C1136.08 24.5568 1136 23.6333 1135.71 22.7646C1135.42 21.8959 1134.93 21.1049 1134.29 20.4524C1133.65 19.7999 1132.86 19.3031 1132 19C1130.18 17.9805 1128.06 17.6269 1126 18C1122 20 1122 25 1123 28C1123.6 29.0435 1124.27 30.0457 1125 31C1126.11 32.4525 1126.8 34.1818 1127 36C1127 41 1127 45 1125 48C1123.02 53.3385 1120.33 58.3844 1117 63C1109 54 1101 51 1101 45C1101 42 1102 39 1100 37H1094C1092 39 1093 41 1093 43C1093 48 1092 51 1087 51C1078 49 1080 43 1080 38L1079 33C1078 32 1076 33 1075 34C1074 35 1073 37 1071 36C1068 35 1069 30 1069 28C1069.52 25.6973 1069.86 23.3564 1070 21C1070 17 1066 13 1061 13C1056 13 1053 18 1054 22L1055 35C1054 41 1051 43 1048 43C1042 43 1042 37 1038 39C1034 40 1036 45 1034 49C1033 50 1031 49 1030 48C1029 47 1029 44 1028 44C1026 44 1027 47 1026 49C1025 51 1022 52 1019 51C1014 51 1015 44 1016 43C1016.18 42.2664 1016.52 41.5827 1017 41C1021 36 1019 30 1012 30C1007 29 1001 35 1004 40C1009 48 1005 56 1000 63C995 56 991 48 996 40C999 35 994 29 988 30C982 30 979 36 984 41C984.48 41.5827 984.822 42.2664 985 43C985 44 986 51 982 52C978 52 976 51 975 49C974 47 975 44 973 44C971 44 972 46 971 48C970 50 968 50 967 49C964 45 966 40 963 39C958 37 959 43 952 43C949 43 946 41 946 35C945 32 946 25 947 22C947 18 944 14 939 13C934 12 930 17 930 21C930.145 23.3564 930.479 25.6973 931 28C931 30 932 35 930 36C927 37 927 35 925 34C924 33 922 32 921 33V38C920 43 923 49 913 51C909 51 908 48 908 43C908 41 909 39 906 37H901C899 39 899 42 899 45C900 51 892 54 884 63C880.317 58.4429 877.288 53.3942 875 48C874 45 873 41 874 36C873.896 34.275 874.24 32.5523 875 31C875.733 30.0457 876.401 29.0435 877 28C879 25 878 20 874 19C872.059 18.3137 869.941 18.3137 868 19C867.136 19.3031 866.353 19.7999 865.71 20.4524C865.068 21.1049 864.583 21.8959 864.294 22.7646C864.004 23.6333 863.917 24.5568 864.04 25.4642C864.162 26.3717 864.491 27.2391 865 28L867 34C867 51 863 58 855 59C845 61 838 54 839 46L840 36C839.832 35.269 839.461 34.6 838.93 34.0695C838.4 33.539 837.731 33.1684 837 33C836.474 32.851 835.924 32.8113 835.382 32.8832C834.841 32.9552 834.32 33.1373 833.851 33.4184C833.383 33.6995 832.977 34.0736 832.658 34.5176C832.34 34.9616 832.116 35.4661 832 36C831 38 833 43 831 44C829 45 827 43 827 41C827 23 829 21 830 13C831 6.00004 826 2.00004 819 4.00004C817 4.00004 814 8.00004 814 11C814 17 817 22 817 44C817 48 818 52 814 56C812.216 57.8157 809.939 59.0678 807.45 59.6011C804.961 60.1344 802.371 59.9254 800 59C795 57 790 48 793 44C794.008 42.4912 794.69 40.788 795 39C796 35 794 31 789 30C783 30 781 36 782 42C782.286 43.7852 782.164 45.6118 781.645 47.3434C781.125 49.075 780.221 50.6668 779 52L765 66C758 58 752 48 751 36C751 29 754 18 756 15C761 9.00004 759 2.00004 752 3.74764e-05C751.336 -0.0836239 750.664 -0.0836239 750 3.74764e-05C745 3.74764e-05 740 5.00004 740 9.00004C740 12 742 14 743 16C746 21 746 42 744 46C739 54 728 53 721 55C718 57 713 56 709 51C704 45 707 30 707 26C706 24 705 22 703 23L700 26C697 29 693 25 692 22C691 19 696 12 691 9.00004H686C683 10 683 13 684 18C684 38 676 52 671 53C669.607 53.0194 668.238 53.3617 667 54C665 55 666 58 666 60L663 67C657 59 650 50 656 40C659 35 654 29 648 30C642 30 639 36 643 41C643.845 41.4603 644.54 42.1548 645 43C645 44 646 51 641 51C638 52 635 51 635 49C634 47 635 44 633 44C631 44 632 46 631 48C630 50 628 50 627 49C624 45 626 40 623 39C618 37 619 43 612 43C609 43 606 41 606 35C605 32 606 25 607 22C607 18 604 14 599 13C594 12 590 17 590 21C590.136 23.3573 590.47 25.699 591 28C591 30 592 35 589 36C587 37 586 35 585 34C584 33 582 32 581 33L580 38C580 43 583 49 573 51C569 51 567 48 567 43C567 41 569 39 566 37H560L559 45C559 51 552 54 543 63C539.668 58.3844 536.977 53.3385 535 48C534 45 533 41 534 36C533.896 34.275 534.24 32.5523 535 31C535.733 30.0457 536.401 29.0435 537 28C539 25 538 20 534 19C532.059 18.3137 529.941 18.3137 528 19C527.136 19.3031 526.353 19.7999 525.71 20.4524C525.068 21.1049 524.583 21.8959 524.294 22.7646C524.004 23.6333 523.917 24.5568 524.04 25.4642C524.162 26.3717 524.491 27.2391 525 28L527 34C526 51 523 58 514 59C505 61 498 54 499 46L500 37C500 35.9392 499.579 34.9218 498.828 34.1716C498.078 33.4215 497.061 33 496 33C495.092 32.9713 494.201 33.2527 493.474 33.798C492.746 34.3433 492.227 35.12 492 36C491 38 493 43 491 45C489 46 487 43 487 42C486 23 489 21 490 13C491 6.00004 486 2.00004 479 4.00004C477 5.00004 474 8.00004 474 11C474 17 477 22 477 44C477 48 478 52 473 56C471.306 57.628 469.203 58.7667 466.914 59.2949C464.625 59.8232 462.236 59.7212 460 59C455 57 450 48 453 44C453.893 42.7922 454.569 41.4389 455 40C456 35 454 31 449 31C443 30 440 36 442 42C442.286 43.7852 442.164 45.6118 441.645 47.3434C441.125 49.075 440.221 50.6668 439 52L425 66C418 58 412 48 411 36C411 29 414 18 416 15C421 9.00004 418 2.00004 412 3.74764e-05C411.336 -0.0836239 410.664 -0.0836239 410 3.74764e-05C405 3.74764e-05 400 5.00004 400 9.00004C400 12 402 14 403 16C406 21 406 42 404 46C399 54 388 53 381 55C378 57 372 56 369 51C364 45 367 30 366 26C366 24 365 22 362 23L359 26C356 29 353 25 352 22C351 19 355 12 351 9.00004H346C343 10 343 13 343 18C344 38 336 52 331 53C329.607 53.0194 328.238 53.3617 327 54C326.421 54.5129 326.063 55.2294 326 56C323 50 323 45 326 40C329 35 324 29 318 30C312 30 309 36 313 41C313.845 41.4603 314.54 42.1548 315 43C315 44 316 51 311 51C308 52 305 51 305 49C304 47 305 44 303 44C301 44 302 46 301 48C300 50 298 50 297 49C294 45 296 40 293 39C288 37 289 43 282 43C279 43 276 41 276 35C275 32 276 25 277 22C277 18 274 14 269 13C264 12 260 17 260 21C260.136 23.3573 260.47 25.699 261 28C261 30 262 35 259 36C257 37 256 35 255 34C254 33 252 32 251 33L250 38C250 43 253 49 243 51C239 51 237 48 237 43C237 41 239 39 236 37H230L229 45C229 51 222 54 213 63C209.668 58.3844 206.977 53.3385 205 48C204 45 203 41 204 36C203.896 34.275 204.24 32.5523 205 31C205.735 30.0475 206.404 29.0451 207 28C209 25 208 20 204 19C202.059 18.3137 199.941 18.3137 198 19C197.136 19.3031 196.353 19.7999 195.71 20.4524C195.068 21.1049 194.583 21.8959 194.294 22.7646C194.004 23.6333 193.917 24.5568 194.04 25.4642C194.162 26.3717 194.491 27.2391 195 28L197 34C196 51 193 58 184 59C175 61 168 54 169 46L170 36C169.773 35.12 169.254 34.3433 168.527 33.798C167.799 33.2527 166.908 32.9713 166 33C165.092 32.9713 164.201 33.2527 163.473 33.798C162.746 34.3433 162.227 35.12 162 36C161 38 163 43 161 44C159 45 157 43 157 41C156 23 159 21 160 13C161 6.00004 156 2.00004 149 4.00004C147 4.00004 144 8.00004 144 11C144 17 147 22 147 44C147 48 148 52 143 56C141.306 57.628 139.203 58.7667 136.914 59.2949C134.625 59.8232 132.236 59.7212 130 59C125 57 120 48 123 44C124.008 42.4912 124.69 40.788 125 39C126 35 124 31 119 30C113 30 110 36 112 42C112.286 43.7852 112.164 45.6118 111.645 47.3434C111.125 49.075 110.221 50.6668 109 52L95 66C88 58 82 48 81 36C81 29 84 18 86 15C91 9.00004 88 2.00004 82 3.74764e-05C81.336 -0.0836239 80.664 -0.0836239 80 3.74764e-05C75 3.74764e-05 70 5.00004 70 9.00004C70 12 72 14 73 16C76 21 76 42 74 46C69 54 58 53 51 55C47 57 42 56 39 51C34 45 37 30 36 26C36 24 35 22 32 23L29 26C26 29 23 25 22 22C21 19 25 12 21 9.00004H16C13 10 13 13 13 18C13 38 6 52 1 53H0V78H87Z" fill="#171616"/>
<path d="M206 40C206 40.2652 206.105 40.5195 206.293 40.7071C206.48 40.8946 206.735 41 207 41L209 40C208.848 39.9122 208.675 39.866 208.5 39.866C208.324 39.866 208.152 39.9122 208 40H206ZM208 47C207.83 47.2536 207.721 47.5427 207.68 47.8452C207.639 48.1477 207.668 48.4555 207.764 48.7451C207.861 49.0347 208.022 49.2983 208.237 49.5158C208.451 49.7333 208.712 49.8989 209 50C209.324 50.1921 209.696 50.2887 210.073 50.2787C210.449 50.2687 210.815 50.1525 211.129 49.9435C211.442 49.7345 211.691 49.4412 211.845 49.0973C211.999 48.7535 212.053 48.3731 212 48C212.051 47.6049 211.984 47.2035 211.805 46.8472C211.627 46.4908 211.347 46.1958 211 46C210 45 208 46 208 47ZM214 46C214.444 45.7995 214.799 45.444 215 45C215.408 44.7511 215.751 44.4082 216 44C216.439 43.2399 216.67 42.3776 216.67 41.5C216.67 40.6223 216.439 39.7601 216 39C215.751 38.5917 215.408 38.2488 215 38C214.696 37.8244 214.351 37.732 214 37.732C213.649 37.732 213.304 37.8244 213 38C212.421 38.5129 212.063 39.2293 212 40C212 41 212 45 214 46ZM135 55L138 54C138 53.7347 137.895 53.4804 137.707 53.2929C137.519 53.1053 137.265 53 137 53L135 54C134.912 54.152 134.866 54.3244 134.866 54.5C134.866 54.6755 134.912 54.8479 135 55ZM119 25C119.613 24.7842 120.14 24.375 120.501 23.8339C120.862 23.2929 121.037 22.6492 121 22C121.051 21.6049 120.984 21.2035 120.805 20.8472C120.627 20.4908 120.347 20.1958 120 20C119.607 19.8444 119.187 19.7734 118.765 19.7916C118.343 19.8098 117.93 19.9168 117.553 20.1055C117.175 20.2943 116.842 20.5606 116.574 20.8871C116.307 21.2135 116.111 21.5927 116 22C115 24 117 26 119 25ZM177 51C177.694 50.6083 178.255 50.0182 178.611 49.3056C178.967 48.5929 179.103 47.7901 179 47C178.937 46.2293 178.578 45.5129 178 45C177.493 44.6603 176.914 44.4413 176.309 44.3597C175.704 44.278 175.089 44.336 174.51 44.529C173.93 44.7221 173.403 45.0451 172.968 45.4734C172.533 45.9017 172.202 46.4239 172 47C171 50 174 53 177 51ZM449 25C449.613 24.7842 450.14 24.375 450.501 23.8339C450.862 23.2929 451.037 22.6492 451 22C451.051 21.6049 450.984 21.2035 450.805 20.8472C450.627 20.4908 450.347 20.1958 450 20C449.607 19.8444 449.187 19.7734 448.765 19.7916C448.343 19.8098 447.93 19.9168 447.553 20.1055C447.175 20.2943 446.842 20.5606 446.574 20.8871C446.307 21.2135 446.111 21.5927 446 22C445 24 447 26 449 25ZM465 55L468 54C468 53.7347 467.895 53.4804 467.707 53.2929C467.519 53.1053 467.265 53 467 53L465 54C464.912 54.152 464.866 54.3244 464.866 54.5C464.866 54.6755 464.912 54.8479 465 55ZM536 40C536 40.2652 536.105 40.5195 536.293 40.7071C536.48 40.8946 536.735 41 537 41L539 40C538.848 39.9122 538.675 39.866 538.5 39.866C538.324 39.866 538.152 39.9122 538 40H536ZM544 46C544.444 45.7995 544.799 45.444 545 45C545.408 44.7511 545.751 44.4082 546 44C546.439 43.2399 546.67 42.3776 546.67 41.5C546.67 40.6223 546.439 39.7601 546 39C545.751 38.5917 545.408 38.2488 545 38C544.696 37.8244 544.351 37.732 544 37.732C543.649 37.732 543.304 37.8244 543 38C542.653 38.1958 542.372 38.4908 542.194 38.8472C542.016 39.2035 541.948 39.6049 542 40C542 41 542 45 544 46ZM507 51C507.694 50.6083 508.255 50.0182 508.611 49.3056C508.967 48.5929 509.103 47.7901 509 47C508.937 46.2293 508.578 45.5129 508 45C507.493 44.6603 506.914 44.4413 506.309 44.3597C505.704 44.278 505.089 44.336 504.51 44.529C503.93 44.7221 503.403 45.0451 502.968 45.4734C502.533 45.9017 502.202 46.4239 502 47C501 50 504 53 507 51ZM538 47C537.83 47.2536 537.721 47.5427 537.68 47.8452C537.639 48.1477 537.668 48.4555 537.764 48.7451C537.861 49.0347 538.022 49.2983 538.237 49.5158C538.451 49.7333 538.712 49.8989 539 50C539.324 50.1921 539.696 50.2887 540.073 50.2787C540.449 50.2687 540.815 50.1525 541.129 49.9435C541.442 49.7345 541.691 49.4412 541.845 49.0973C541.999 48.7535 542.053 48.3731 542 48C542.051 47.6049 541.984 47.2035 541.805 46.8472C541.627 46.4908 541.347 46.1958 541 46C540 45 538 46 538 47ZM876 40C876 40.2652 876.105 40.5195 876.293 40.7071C876.48 40.8946 876.735 41 877 41C878 42 879 41 879 40H876ZM884 46C884.395 46.0514 884.796 45.9837 885.153 45.8056C885.509 45.6274 885.804 45.3469 886 45C886.408 44.7511 886.751 44.4082 887 44C887.297 43.1535 887.361 42.2426 887.185 41.3629C887.009 40.4832 886.6 39.667 886 39C885.751 38.5917 885.408 38.2488 885 38C884.696 37.8244 884.351 37.732 884 37.732C883.649 37.732 883.304 37.8244 883 38C882.653 38.1958 882.372 38.4908 882.194 38.8472C882.016 39.2035 881.948 39.6049 882 40C882 41 882 45 884 46ZM878 47C877.83 47.2536 877.721 47.5427 877.68 47.8452C877.639 48.1477 877.668 48.4555 877.764 48.7451C877.861 49.0347 878.022 49.2983 878.237 49.5158C878.451 49.7333 878.712 49.8989 879 50C879.324 50.1921 879.696 50.2887 880.073 50.2787C880.449 50.2687 880.815 50.1525 881.129 49.9435C881.442 49.7345 881.691 49.4412 881.845 49.0973C881.999 48.7535 882.053 48.3731 882 48C882.175 47.6959 882.268 47.351 882.268 47C882.268 46.6489 882.175 46.304 882 46C880 45 878 46 878 47ZM805 55L808 54C808 53.7347 807.895 53.4804 807.707 53.2929C807.519 53.1053 807.265 53 807 53L805 54C804.912 54.152 804.866 54.3244 804.866 54.5C804.866 54.6755 804.912 54.8479 805 55ZM847 51C847.694 50.6083 848.255 50.0182 848.611 49.3056C848.967 48.5929 849.103 47.7901 849 47C848.937 46.2293 848.578 45.5129 848 45C847.493 44.6603 846.914 44.4413 846.309 44.3597C845.704 44.278 845.089 44.336 844.51 44.529C843.93 44.7221 843.403 45.0451 842.968 45.4734C842.533 45.9017 842.202 46.4239 842 47C841 50 844 53 847 51ZM789 25C789.613 24.7842 790.14 24.375 790.501 23.8339C790.862 23.2929 791.037 22.6492 791 22C791.051 21.6049 790.984 21.2035 790.805 20.8472C790.627 20.4908 790.347 20.1958 790 20C789.607 19.8444 789.187 19.7734 788.765 19.7916C788.343 19.8098 787.93 19.9168 787.553 20.1055C787.175 20.2943 786.842 20.5606 786.574 20.8871C786.307 21.2135 786.111 21.5927 786 22C785 24 787 26 789 25Z" fill="#171616"/>
</g>
<defs>
<clipPath id="clip0_1378_1121">
<rect width="2000" height="78" fill="white"/>
</clipPath>
</defs>
</svg>
